<svg width="89" height="66" viewBox="0 0 89 66" fill="none" xmlns="http://www.w3.org/2000/svg">
<path d="M65.5524 11.1803C65.224 9.6149 65.3117 9.7377 64.9506 7.0929L60.0158 8.05464C63.911 5.46943 65.714 3.81201 67.3578 0C67.7333 5.19333 67.4413 7.67428 65.5524 11.1803Z" fill="#F2B203"/>
<path d="M57.8708 25.7268C57.8708 35.8188 49.6799 44 39.5758 44C34.2647 44 29.4822 41.7395 26.14 38.1293C26.2448 38.1229 26.3506 38.1161 26.4573 38.109C40.6857 37.1554 49.0343 31.6096 56.8427 19.6722C58.542 17.0507 60.2327 14.1167 61.9603 10.8425C59.674 12.8835 57.4615 14.7275 55.2943 16.3711L55.2953 16.3727C43.9389 25.9514 33.7087 27.9842 21.5225 22.8412C21.515 22.8573 21.5075 22.8735 21.5 22.8896C22.8648 14.145 30.4379 7.45355 39.5758 7.45355C46.0827 7.45355 51.7962 10.8465 55.0396 15.9577C57.4849 14.1003 59.9986 11.9832 62.609 9.60984C62.9538 9.29627 63.3004 8.97824 63.6487 8.65574C63.4352 9.07566 63.2223 9.49053 63.0101 9.90038C61.0014 13.779 59.022 17.2704 57.047 20.2886C57.5824 22.0064 57.8708 23.8329 57.8708 25.7268Z" fill="#07689F"/>
<path d="M3.728 51.96V54.232H7.392V56.344H3.728V58.808H7.872V61H0.992V49.768H7.872V51.96H3.728ZM9.10425 56.52C9.10425 55.6027 9.27492 54.7973 9.61625 54.104C9.96825 53.4107 10.4429 52.8773 11.0403 52.504C11.6376 52.1307 12.3043 51.944 13.0403 51.944C13.6696 51.944 14.2189 52.072 14.6883 52.328C15.1683 52.584 15.5363 52.92 15.7923 53.336V52.072H18.5283V61H15.7923V59.736C15.5256 60.152 15.1523 60.488 14.6723 60.744C14.2029 61 13.6536 61.128 13.0243 61.128C12.2989 61.128 11.6376 60.9413 11.0403 60.568C10.4429 60.184 9.96825 59.6453 9.61625 58.952C9.27492 58.248 9.10425 57.4373 9.10425 56.52ZM15.7923 56.536C15.7923 55.8533 15.6003 55.3147 15.2163 54.92C14.8429 54.5253 14.3843 54.328 13.8403 54.328C13.2963 54.328 12.8323 54.5253 12.4483 54.92C12.0749 55.304 11.8883 55.8373 11.8883 56.52C11.8883 57.2027 12.0749 57.7467 12.4483 58.152C12.8323 58.5467 13.2963 58.744 13.8403 58.744C14.3843 58.744 14.8429 58.5467 15.2163 58.152C15.6003 57.7573 15.7923 57.2187 15.7923 56.536ZM24.1396 61.128C23.361 61.128 22.6676 60.9947 22.0596 60.728C21.4516 60.4613 20.9716 60.0987 20.6196 59.64C20.2676 59.1707 20.0703 58.648 20.0276 58.072H22.7316C22.7636 58.3813 22.9076 58.632 23.1636 58.824C23.4196 59.016 23.7343 59.112 24.1076 59.112C24.449 59.112 24.7103 59.048 24.8916 58.92C25.0836 58.7813 25.1796 58.6053 25.1796 58.392C25.1796 58.136 25.0463 57.9493 24.7796 57.832C24.513 57.704 24.081 57.5653 23.4836 57.416C22.8436 57.2667 22.3103 57.112 21.8836 56.952C21.457 56.7813 21.089 56.52 20.7796 56.168C20.4703 55.8053 20.3156 55.32 20.3156 54.712C20.3156 54.2 20.4543 53.736 20.7316 53.32C21.0196 52.8933 21.4356 52.5573 21.9796 52.312C22.5343 52.0667 23.1903 51.944 23.9476 51.944C25.0676 51.944 25.9476 52.2213 26.5876 52.776C27.2383 53.3307 27.6116 54.0667 27.7076 54.984H25.1796C25.137 54.6747 24.9983 54.4293 24.7636 54.248C24.5396 54.0667 24.241 53.976 23.8676 53.976C23.5476 53.976 23.3023 54.04 23.1316 54.168C22.961 54.2853 22.8756 54.4507 22.8756 54.664C22.8756 54.92 23.009 55.112 23.2756 55.24C23.553 55.368 23.9796 55.496 24.5556 55.624C25.217 55.7947 25.7556 55.9653 26.1716 56.136C26.5876 56.296 26.9503 56.5627 27.2596 56.936C27.5796 57.2987 27.745 57.7893 27.7556 58.408C27.7556 58.9307 27.6063 59.4 27.3076 59.816C27.0196 60.2213 26.5983 60.5413 26.0436 60.776C25.4996 61.0107 24.865 61.128 24.1396 61.128ZM38.5495 52.072L32.9495 65.24H30.0055L32.0535 60.696L28.4215 52.072H31.4775L33.5415 57.656L35.5895 52.072H38.5495ZM43.6029 61.112C42.7815 61.112 42.0455 60.9787 41.3949 60.712C40.7442 60.4453 40.2215 60.0507 39.8269 59.528C39.4429 59.0053 39.2402 58.376 39.2189 57.64H42.1309C42.1735 58.056 42.3175 58.376 42.5629 58.6C42.8082 58.8133 43.1282 58.92 43.5229 58.92C43.9282 58.92 44.2482 58.8293 44.4829 58.648C44.7175 58.456 44.8349 58.1947 44.8349 57.864C44.8349 57.5867 44.7389 57.3573 44.5469 57.176C44.3655 56.9947 44.1362 56.8453 43.8589 56.728C43.5922 56.6107 43.2082 56.4773 42.7069 56.328C41.9815 56.104 41.3895 55.88 40.9309 55.656C40.4722 55.432 40.0775 55.1013 39.7469 54.664C39.4162 54.2267 39.2509 53.656 39.2509 52.952C39.2509 51.9067 39.6295 51.0907 40.3869 50.504C41.1442 49.9067 42.1309 49.608 43.3469 49.608C44.5842 49.608 45.5815 49.9067 46.3389 50.504C47.0962 51.0907 47.5015 51.912 47.5549 52.968H44.5949C44.5735 52.6053 44.4402 52.3227 44.1949 52.12C43.9495 51.9067 43.6349 51.8 43.2509 51.8C42.9202 51.8 42.6535 51.8907 42.4509 52.072C42.2482 52.2427 42.1469 52.4933 42.1469 52.824C42.1469 53.1867 42.3175 53.4693 42.6589 53.672C43.0002 53.8747 43.5335 54.0933 44.2589 54.328C44.9842 54.5733 45.5709 54.808 46.0189 55.032C46.4775 55.256 46.8722 55.5813 47.2029 56.008C47.5335 56.4347 47.6989 56.984 47.6989 57.656C47.6989 58.296 47.5335 58.8773 47.2029 59.4C46.8829 59.9227 46.4135 60.3387 45.7949 60.648C45.1762 60.9573 44.4455 61.112 43.6029 61.112ZM57.7986 56.392C57.7986 56.648 57.7826 56.9147 57.7506 57.192H51.5586C51.6013 57.7467 51.7773 58.1733 52.0866 58.472C52.4066 58.76 52.796 58.904 53.2546 58.904C53.9373 58.904 54.412 58.616 54.6786 58.04H57.5906C57.4413 58.6267 57.1693 59.1547 56.7746 59.624C56.3906 60.0933 55.9053 60.4613 55.3186 60.728C54.732 60.9947 54.076 61.128 53.3506 61.128C52.476 61.128 51.6973 60.9413 51.0146 60.568C50.332 60.1947 49.7986 59.6613 49.4146 58.968C49.0306 58.2747 48.8386 57.464 48.8386 56.536C48.8386 55.608 49.0253 54.7973 49.3986 54.104C49.7826 53.4107 50.316 52.8773 50.9986 52.504C51.6813 52.1307 52.4653 51.944 53.3506 51.944C54.2146 51.944 54.9826 52.1253 55.6546 52.488C56.3266 52.8507 56.8493 53.368 57.2226 54.04C57.6066 54.712 57.7986 55.496 57.7986 56.392ZM54.9986 55.672C54.9986 55.2027 54.8386 54.8293 54.5186 54.552C54.1986 54.2747 53.7986 54.136 53.3186 54.136C52.86 54.136 52.4706 54.2693 52.1506 54.536C51.8413 54.8027 51.6493 55.1813 51.5746 55.672H54.9986ZM64.218 58.68V61H62.826C61.834 61 61.0607 60.76 60.506 60.28C59.9513 59.7893 59.674 58.9947 59.674 57.896V54.344H58.586V52.072H59.674V49.896H62.41V52.072H64.202V54.344H62.41V57.928C62.41 58.1947 62.474 58.3867 62.602 58.504C62.73 58.6213 62.9433 58.68 63.242 58.68H64.218ZM68.7646 58.808C69.1273 58.52 69.2926 58.3867 69.2606 58.408C70.306 57.544 71.1273 56.8347 71.7246 56.28C72.3326 55.7253 72.8446 55.144 73.2606 54.536C73.6766 53.928 73.8846 53.336 73.8846 52.76C73.8846 52.3227 73.7833 51.9813 73.5806 51.736C73.378 51.4907 73.074 51.368 72.6686 51.368C72.2633 51.368 71.9433 51.5227 71.7086 51.832C71.4846 52.1307 71.3726 52.5573 71.3726 53.112H68.7326C68.754 52.2053 68.946 51.448 69.3086 50.84C69.682 50.232 70.1673 49.784 70.7646 49.496C71.3726 49.208 72.0446 49.064 72.7806 49.064C74.05 49.064 75.0046 49.3893 75.6446 50.04C76.2953 50.6907 76.6206 51.5387 76.6206 52.584C76.6206 53.7253 76.2313 54.7867 75.4526 55.768C74.674 56.7387 73.682 57.688 72.4766 58.616H76.7966V60.84H68.7646V58.808ZM78.0653 58.92V56.712L83.1213 49.48H86.1773V56.552H87.4893V58.92H86.1773V61H83.4413V58.92H78.0653ZM83.6333 52.488L80.9453 56.552H83.6333V52.488Z" fill="#07689F"/>
</svg>
